<svg version="1.1" id="Layer_1" xmlns="http://www.w3.org/2000/svg" xmlns:xlink="http://www.w3.org/1999/xlink" x="0px" y="0px"
	 width="100%" viewBox="0 0 512 512" enable-background="new 0 0 512 512" xml:space="preserve">
<path fill="#00000000" opacity="1.000000" stroke="none" 
	d="
M283.000000,1.000002 
	C359.592743,1.000000 436.185455,1.000000 513.000000,1.000000 
	C513.000000,75.354080 513.000000,149.708389 512.631836,224.642792 
	C511.607452,223.934311 510.592712,222.706421 510.362366,221.345764 
	C509.673035,217.273315 509.290558,213.148926 508.860962,208.672546 
	C508.553070,206.871017 508.172455,205.441757 507.870880,203.622849 
	C506.990814,200.472900 506.031708,197.712616 504.954620,194.683624 
	C504.497620,193.940460 504.158569,193.466003 503.981628,192.669006 
	C504.332306,191.750610 504.810730,191.070343 504.665558,190.571640 
	C502.769135,184.058731 500.784485,177.571518 498.809509,170.718475 
	C497.816620,168.131393 496.892761,165.876724 495.845093,163.681091 
	C492.859344,157.423721 489.823151,151.190399 486.715515,144.603760 
	C483.371033,138.051697 480.519623,131.588089 476.772858,125.693596 
	C470.786865,116.276367 464.206085,107.237228 457.903931,97.764931 
	C457.633606,97.310051 457.336151,97.128479 457.018921,96.971100 
	C456.999084,96.995285 457.054047,96.965790 457.001404,96.698532 
	C456.642029,96.267242 456.335327,96.103210 456.012451,95.963509 
	C455.996338,95.987839 456.054016,95.978897 455.994354,95.713303 
	C455.647522,95.238686 455.360352,95.029671 455.057251,94.632935 
	C455.041351,94.445213 454.925659,94.086639 454.956482,93.797516 
	C454.674103,93.321449 454.360870,93.134514 454.021790,92.964912 
	C453.995972,92.982246 454.051331,92.961761 453.998291,92.704224 
	C453.674164,92.236816 453.403107,92.026947 453.050079,91.595032 
	C452.782654,91.096680 452.527924,90.920670 452.098511,90.604248 
	C451.704010,90.178673 451.414917,89.993774 450.984985,89.545288 
	C449.974609,88.510971 449.105103,87.740234 448.220123,86.896370 
	C448.204681,86.823242 448.055573,86.812515 447.995544,86.592300 
	C447.759369,86.093483 447.506836,85.943054 447.119904,85.571098 
	C445.347168,83.262329 443.761475,81.169617 441.895050,79.367653 
	C434.473969,72.202988 427.310974,64.711998 419.387512,58.143951 
	C412.104980,52.107231 404.013153,47.035336 396.175049,41.689060 
	C394.379211,40.464138 392.162109,39.856808 389.964935,38.647350 
	C386.950806,35.922585 384.245300,33.849575 380.438538,32.399952 
	C370.332550,28.551542 360.853149,23.086210 350.986694,18.564747 
	C347.530914,16.981062 343.673309,16.274097 339.670776,15.009300 
	C334.052460,12.976171 328.805359,10.964962 323.456635,9.275560 
	C320.230316,8.256526 316.876526,7.534446 313.527039,7.032379 
	C303.699738,5.559339 293.842773,4.284347 284.013336,2.824765 
	C283.594482,2.762567 283.334167,1.632568 283.000000,1.000002 
z"/>
</svg>
